<svg width="45" height="45" viewBox="0 0 45 45" fill="none" xmlns="http://www.w3.org/2000/svg">
  <path fill-rule="evenodd" clip-rule="evenodd" d="M22.5 45C34.9264 45 45 34.9264 45 22.5C45 10.0736 34.9264 0 22.5 0C10.0736 0 0 10.0736 0 22.5C0 34.9264 10.0736 45 22.5 45ZM22.237 31.8851C20.765 31.0121 15.226 27.4851 13.824 23.1231C12.933 20.3401 13.757 16.8111 17.038 15.7531C18.655 15.2311 20.429 15.5301 21.787 16.5511C22.057 16.7551 22.429 16.7511 22.697 16.5451C23.979 15.5531 25.836 15.2421 27.428 15.7531C30.714 16.8121 31.541 20.3411 30.65 23.1271C29.293 27.4371 23.714 31.0031 22.237 31.8851Z" fill="white"/>
  <path opacity="1" fill-rule="evenodd" clip-rule="evenodd" d="M13.8239 23.1232C15.2259 27.4852 20.7649 31.0122 22.2369 31.8852C23.7139 31.0032 29.2929 27.4372 30.6499 23.1272C31.5409 20.3412 30.7139 16.8122 27.4279 15.7532C25.8359 15.2422 23.9789 15.5532 22.6969 16.5452C22.4289 16.7512 22.0569 16.7552 21.7869 16.5512C20.4289 15.5302 18.6549 15.2312 17.0379 15.7532C13.7569 16.8112 12.9329 20.3402 13.8239 23.1232" fill="red"/>
</svg>