<svg width="37" height="52" viewBox="0 0 37 52" fill="none" xmlns="http://www.w3.org/2000/svg">
  <path d="M13.3612 17.0205L2.7038 25.3352L13.3612 33.6498C16.3755 36.0015 20.6031 36.0015 23.6175 33.6498L34.2749 25.3352L23.6175 17.0205C20.6031 14.6689 16.3755 14.6689 13.3612 17.0205Z" stroke="white" stroke-width="3.3263"/>
  <path fill-rule="evenodd" clip-rule="evenodd" d="M0 37.5751L18.4893 52L36.9787 37.5751L36.9744 37.5718H37V25.3428H36.969L36.9787 25.3352L18.4893 10.9104L0 25.3352L0.00962266 25.3428H0.00561178V37.5708L0 37.5751Z" fill="url(#paint0_linear_1_706)"/>
  <path d="M18.4543 9.44861L8.51637 17.2185L16.399 23.3816C17.6066 24.3257 19.302 24.3257 20.5096 23.3816L28.3922 17.2185L18.4543 9.44861Z" stroke="white" stroke-width="3.3263"/>
  <path fill-rule="evenodd" clip-rule="evenodd" d="M5.71936 25.6219L18.447 35.5132L31.1746 25.6219L31.1717 25.6196H31.1893V17.2339H31.168L31.1746 17.2288L18.447 7.33745L5.71936 17.2288L5.72598 17.2339H5.72322V25.6189L5.71936 25.6219Z" fill="url(#paint1_linear_1_706)"/>
  <ellipse cx="18.5028" cy="8.80492" rx="8.71596" ry="8.80492" fill="white"/>
  <mask id="mask0_1_706" style="mask-type:luminance" maskUnits="userSpaceOnUse" x="9" y="0" width="19" height="18">
    <ellipse cx="18.5028" cy="8.80492" rx="8.71596" ry="8.80492" fill="white"/>
  </mask>
  <g mask="url(#mask0_1_706)">
    <g filter="url(#filter0_f_1_706)">
      <ellipse cx="18.5028" cy="8.80492" rx="8.71596" ry="8.80492" fill="url(#paint2_radial_1_706)"/>
    </g>
  </g>
  <defs>
    <filter id="filter0_f_1_706" x="5.00002" y="-4.78685" width="27.0056" height="27.1836" filterUnits="userSpaceOnUse" color-interpolation-filters="sRGB">
      <feFlood flood-opacity="0" result="BackgroundImageFix"/>
      <feBlend mode="normal" in="SourceGraphic" in2="BackgroundImageFix" result="shape"/>
      <feGaussianBlur stdDeviation="2.39342" result="effect1_foregroundBlur_1_706"/>
    </filter>
    <linearGradient id="paint0_linear_1_706" x1="0" y1="52" x2="0" y2="10.9104" gradientUnits="userSpaceOnUse">
      <stop stop-color="white" stop-opacity="0.01"/>
      <stop offset="1" stop-color="#684FFF"/>
    </linearGradient>
    <linearGradient id="paint1_linear_1_706" x1="5.71936" y1="35.5132" x2="5.71936" y2="7.33745" gradientUnits="userSpaceOnUse">
      <stop stop-color="white" stop-opacity="0.01"/>
      <stop offset="1" stop-color="#684FFF"/>
    </linearGradient>
    <radialGradient id="paint2_radial_1_706" cx="0" cy="0" r="1" gradientUnits="userSpaceOnUse" gradientTransform="translate(11.2698 13.8197) rotate(90) scale(17.1605 16.9872)">
      <stop stop-color="#58A6FF"/>
      <stop offset="1" stop-color="#91F849" stop-opacity="0.01"/>
    </radialGradient>
  </defs>
</svg>